<svg width="196" height="46" viewBox="0 0 196 46" fill="none" xmlns="http://www.w3.org/2000/svg">
<path d="M15.6376 0.143761C9.27657 1.23368 4.74432 7.61368 5.8045 13.9937C6.12255 16.014 6.97069 18.1407 7.84533 19.204L8.34892 19.8154L9.80666 18.6989C11.7415 17.2634 12.9077 16.6786 14.8955 16.2001C18.8447 15.2697 22.3167 16.0938 25.8948 18.7521C26.6635 19.3369 27.3261 19.7888 27.4056 19.7888C27.4851 19.7888 27.8562 19.2572 28.2537 18.5926C32.2294 11.7607 28.9428 2.85526 21.6011 0.569095C19.8253 0.0108448 17.4134 -0.148655 15.6376 0.143761ZM19.1627 4.13126C22.3962 5.00851 23.854 9.23526 21.8131 11.7607C19.4808 14.6583 15.7171 14.5785 13.6498 11.6012C11.98 9.18209 12.9872 5.75284 15.7171 4.47684C17.2544 3.75909 17.705 3.73251 19.1627 4.13126Z" fill="white"/>
<path d="M0.66261 17.5293C0.0795132 18.0876 0 18.4066 0 20.1079C0.0265044 25.2916 2.49141 29.9171 6.33455 31.9906C7.2092 32.4426 8.21636 33.1869 8.58742 33.6122C9.25003 34.4363 9.93915 36.9351 9.6741 37.6263C9.54158 37.9719 10.0452 38.0251 12.8281 37.9985H16.1412L16.3267 35.7655C16.6978 31.2995 15.8761 28.0297 14.0208 26.6208C13.5172 26.2752 11.8475 25.3448 10.3102 24.6271C7.10318 23.0852 5.61893 21.6763 4.39973 19.0711C4.00216 18.2205 3.47208 17.3698 3.23354 17.1837C2.54442 16.6521 1.35172 16.8116 0.66261 17.5293Z" fill="white"/>
<path d="M32.5475 17.1837C32.309 17.3698 31.8054 18.247 31.3813 19.0977C30.1091 21.8623 28.2273 23.5371 24.8082 24.9726C22.1578 26.0891 20.9916 27.0461 20.276 28.6411C19.4808 30.4222 19.2423 32.4691 19.4808 35.5528L19.6664 37.9984H22.8999L26.1599 38.025L26.1864 36.8022C26.2394 34.4363 27.0081 33.2666 29.4995 31.964C33.3426 29.8905 35.7545 25.3182 35.781 20.1078C35.781 18.4065 35.7015 18.0875 35.1184 17.5293C34.4293 16.8115 33.2366 16.652 32.5475 17.1837Z" fill="white"/>
<path d="M111.398 11.5967C110.682 12.3145 110.709 13.4841 111.477 14.2019C112.273 14.9462 113.28 14.9462 113.995 14.1753C115.162 12.9525 114.366 11.065 112.723 11.065C112.273 11.065 111.689 11.3043 111.398 11.5967Z" fill="white"/>
<path d="M148.504 20.768V29.6734H149.962H151.419V28.8227V27.9986L152.029 28.5569C153.407 29.8595 156.508 30.3645 158.39 29.5936C160.828 28.5569 162.048 26.5897 162.233 23.4263C162.339 21.6186 162.26 21.0604 161.756 19.8907C160.139 16.1425 155.554 14.9196 152.294 17.3653L151.419 18.0033V14.9462V11.8626H149.962H148.504V20.768ZM157.515 19.3591C159.954 21.0338 159.927 25.234 157.462 26.7492C154.785 28.3974 151.605 26.3505 151.631 23.001C151.658 21.2199 152.718 19.4654 154.07 18.9603C155.05 18.6147 156.667 18.8008 157.515 19.3591Z" fill="white"/>
<path d="M164.672 20.768V29.6734H166.13H167.587V20.768V11.8626H166.13H164.672V20.768Z" fill="white"/>
<path d="M86.4838 14.6538V16.3817H85.6887C84.9201 16.3817 84.8936 16.4349 84.8936 17.578C84.8936 18.721 84.9201 18.7742 85.6887 18.7742H86.4838V22.8946C86.4838 28.9025 86.9609 29.6734 90.7245 29.6734H92.5798V28.4771V27.2809H91.4136C89.5053 27.2809 89.3993 27.0416 89.3993 22.6022V18.7742H90.9896H92.5798V17.578V16.3817H90.9896H89.3993V14.6538V12.9259H87.9416H86.4838V14.6538Z" fill="white"/>
<path d="M47.3367 16.4083C46.8596 16.5412 46.038 17.0729 45.5344 17.6046C44.7128 18.4286 44.6068 18.6679 44.6068 19.9705C44.6068 21.1933 44.7128 21.5389 45.4284 22.363C46.091 23.1073 46.7271 23.4263 48.8475 24.0909C51.6039 24.9416 52.1075 25.2871 51.975 26.2707C51.922 26.7226 51.6039 26.9885 50.7823 27.2809C49.7751 27.6265 49.5631 27.5999 48.7149 27.2011C48.2114 26.9619 47.6283 26.4568 47.4692 26.0846C47.2042 25.4998 47.0187 25.4201 45.7199 25.4201H44.2622L44.4212 26.4036C44.7658 28.4506 47.0717 29.9392 49.9076 29.9392C53.1412 29.9392 54.9435 28.4771 54.9435 25.8986C54.9435 23.958 53.9628 23.0276 51.0208 22.0971C48.1318 21.1933 47.5222 20.8211 47.5222 19.9439C47.5222 19.4388 47.7343 19.1996 48.4499 18.8806C49.8811 18.2957 51.3124 18.7742 51.7895 20.0236C51.975 20.5553 52.187 20.6351 53.5122 20.6351H54.9965L54.811 19.7578C54.3074 17.4451 52.4786 16.1425 49.6426 16.1691C48.8475 16.1691 47.7873 16.2754 47.3367 16.4083Z" fill="white"/>
<path d="M75.6966 16.4083C75.2195 16.5412 74.3979 17.0729 73.8943 17.6046C73.0726 18.4286 72.9666 18.6679 72.9666 19.9705C72.9666 21.1933 73.0726 21.5389 73.7883 22.363C74.4509 23.1073 75.087 23.4263 77.2073 24.0909C79.9638 24.9416 80.4674 25.2871 80.3349 26.2707C80.2818 26.7226 79.9638 26.9885 79.1422 27.2809C78.135 27.6265 77.923 27.5999 77.0748 27.2011C76.5712 26.9619 75.9881 26.4568 75.8291 26.0846C75.5641 25.4998 75.3785 25.4201 74.0798 25.4201H72.6221L72.7811 26.4036C73.1257 28.4506 75.4315 29.9392 78.2675 29.9392C81.501 29.9392 83.3033 28.4771 83.3033 25.8986C83.3033 23.958 82.3227 23.0276 79.3807 22.0971C76.4917 21.1933 75.8821 20.8211 75.8821 19.9439C75.8821 19.4388 76.0941 19.1996 76.8098 18.8806C78.241 18.2957 79.6722 18.7742 80.1493 20.0236C80.3349 20.5553 80.5469 20.6351 81.8721 20.6351H83.3564L83.1708 19.7578C82.6672 17.4451 80.8384 16.1425 78.0025 16.1691C77.2073 16.1691 76.1472 16.2754 75.6966 16.4083Z" fill="white"/>
<path d="M97.642 16.8071C95.1771 18.0565 93.9579 20.6085 94.2495 23.8516C94.541 27.2277 96.8734 29.6734 100.001 29.886C101.777 30.019 103.128 29.6468 104.242 28.6898L105.037 28.0252V28.8493C105.037 29.6734 105.037 29.6734 106.494 29.6734H107.952V23.0275V16.3817H106.494H105.037V17.2324V18.0565L104.427 17.4982C102.81 15.9564 99.9214 15.664 97.642 16.8071ZM102.969 19.2261C105.567 20.7945 105.54 25.5264 102.916 26.8821C101.061 27.8391 98.6227 27.0682 97.7215 25.2074C96.6879 23.0807 97.2975 20.4755 99.0998 19.2793C100.08 18.6413 101.909 18.6147 102.969 19.2261Z" fill="white"/>
<path d="M122.264 16.5412C121.761 16.7539 121.151 17.1261 120.886 17.3653C120.436 17.7641 120.409 17.7375 120.409 17.0995C120.409 16.4083 120.356 16.3817 118.951 16.3817H117.494V23.0275V29.6734H118.951H120.409V26.1378C120.436 21.6186 120.648 20.449 121.708 19.5185C123.06 18.2957 125.418 18.5881 126.426 20.0768C126.823 20.6616 126.929 21.5123 126.982 25.2074L127.088 29.6734H128.519H129.951V25.3403C129.951 20.6616 129.739 19.3856 128.705 18.0033C127.406 16.302 124.411 15.6108 122.264 16.5412Z" fill="white"/>
<path d="M137.107 16.3551C135.278 16.9134 133.9 18.0831 132.972 19.8376C132.23 21.2199 132.283 24.915 133.052 26.3505C134.324 28.7164 136.418 29.9392 139.201 29.9392C141.984 29.9126 143.919 28.7961 145.191 26.4568C145.853 25.234 145.959 24.7289 145.959 23.0276C145.959 21.4326 145.827 20.768 145.297 19.7046C144.528 18.216 142.885 16.8071 141.401 16.3817C140.287 16.0893 138.088 16.0627 137.107 16.3551ZM141.507 19.5983C142.54 20.5553 142.938 21.5123 142.938 23.0276C142.938 24.6226 142.487 25.6061 141.348 26.5897C140.658 27.148 140.234 27.2809 139.042 27.2809C137.743 27.2809 137.478 27.1746 136.709 26.4036C134.695 24.3833 134.96 20.6882 137.186 19.2793C138.379 18.535 140.552 18.6945 141.507 19.5983Z" fill="white"/>
<path d="M174.399 16.488C172.861 17.0463 171.669 18.1096 171.006 19.492C170.158 21.1933 170.105 24.7555 170.874 26.2973C171.987 28.5569 173.736 29.7 176.36 29.886C179.09 30.0721 181.29 29.1151 182.456 27.1745C183.251 25.872 183.145 25.6859 181.475 25.6859C180.203 25.6859 179.912 25.7922 179.487 26.3239C178.109 28.0784 174.849 27.7062 173.789 25.6593C172.994 24.0643 172.941 24.0909 178.454 24.0909H183.49V22.9478C183.49 20.2895 182.191 17.8704 180.23 16.8602C178.825 16.1425 175.83 15.9564 174.399 16.488ZM178.772 19.1995C179.594 19.6249 180.309 20.5553 180.309 21.2199C180.309 21.6452 179.991 21.6984 176.864 21.6984C174.637 21.6984 173.418 21.592 173.418 21.4325C173.418 20.635 174.346 19.492 175.353 19.0135C176.519 18.4818 177.473 18.535 178.772 19.1995Z" fill="white"/>
<path d="M188.34 16.4083C187.863 16.5412 187.041 17.0729 186.538 17.6046C185.716 18.4286 185.61 18.6679 185.61 19.9705C185.61 21.1933 185.716 21.5389 186.432 22.363C187.094 23.1073 187.731 23.4263 189.851 24.0909C192.607 24.9416 193.111 25.2871 192.978 26.2707C192.925 26.7226 192.607 26.9885 191.786 27.2809C190.779 27.6265 190.567 27.5999 189.718 27.2011C189.215 26.9619 188.632 26.4568 188.473 26.0846C188.208 25.4998 188.022 25.4201 186.723 25.4201H185.266L185.425 26.4036C185.769 28.4506 188.075 29.9392 190.911 29.9392C194.145 29.9392 195.947 28.4771 195.947 25.8986C195.947 23.958 194.966 23.0276 192.024 22.0971C189.135 21.1933 188.526 20.8211 188.526 19.9439C188.526 19.4388 188.738 19.1996 189.453 18.8806C190.885 18.2957 192.316 18.7742 192.793 20.0236C192.978 20.5553 193.19 20.6351 194.516 20.6351H196L195.814 19.7578C195.311 17.4451 193.482 16.1425 190.646 16.1691C189.851 16.1691 188.791 16.2754 188.34 16.4083Z" fill="white"/>
<path d="M57.5938 20.8211C57.5938 23.2934 57.7263 25.739 57.8588 26.2707C58.7334 29.381 62.5766 30.8696 65.6246 29.3012C66.7908 28.7164 66.8703 28.7164 66.8703 29.1683C66.8703 29.5936 67.0823 29.6734 68.328 29.6734H69.7858V23.0276V16.3817H68.3545H66.8968L66.8173 21.0604L66.7378 25.739L65.8631 26.51C65.174 27.1214 64.7764 27.2809 63.7428 27.2809C63.0272 27.2809 62.232 27.0948 61.8875 26.8555C60.6948 26.0315 60.5092 25.2074 60.5092 20.6351V16.3817H59.0515H57.5938V20.8211Z" fill="white"/>
<path d="M111.133 23.0275V29.6734H112.591H114.048V23.0275V16.3817H112.591H111.133V23.0275Z" fill="white"/>
<path d="M175.008 36.2926C172.066 39.27 169.469 40.9181 165.811 42.1675C161.729 43.5233 156.959 43.6562 153.01 42.5397C149.246 41.4498 144.952 38.8446 142.143 35.9205C141.242 34.9635 140.446 34.1925 140.393 34.1925C140.075 34.1925 138.432 35.6812 138.432 35.9736C138.432 36.5319 141.083 39.2168 143.256 40.8384C145.827 42.8055 149.458 44.5866 152.479 45.4107C154.414 45.9424 155.342 46.0221 159.106 45.9955C163.081 45.9955 163.691 45.9158 165.811 45.2778C168.435 44.4537 171.192 43.1511 173.55 41.5561C175.273 40.413 179.779 35.9736 179.779 35.442C179.779 35.0964 178.083 33.6343 177.738 33.6875C177.632 33.714 176.386 34.8837 175.008 36.2926Z" fill="white"/>
</svg>
